<svg width="20" height="20" viewBox="0 0 20 20" fill="none" xmlns="http://www.w3.org/2000/svg">
    <path
        d="M10 0.25C4.62391 0.25 0.25 4.62391 0.25 10C0.25 15.3761 4.62391 19.75 10 19.75C15.3761 19.75 19.75 15.3761 19.75 10C19.75 4.62391 15.3761 0.25 10 0.25ZM13.5011 12.1009C13.0614 12.6372 12.2636 13.4945 10.4214 14.7452C10.2972 14.8302 10.1501 14.8757 9.99953 14.8757C9.84896 14.8757 9.7019 14.8302 9.57766 14.7452C7.73547 13.4945 6.93766 12.6358 6.49797 12.1009C5.56047 10.9586 5.11141 9.78531 5.12453 8.515C5.13906 7.05906 6.30672 5.87453 7.7275 5.87453C8.68375 5.87453 9.36812 6.37281 9.79469 6.83125C9.82097 6.85905 9.85266 6.8812 9.8878 6.89634C9.92294 6.91148 9.9608 6.91928 9.99906 6.91928C10.0373 6.91928 10.0752 6.91148 10.1103 6.89634C10.1455 6.8812 10.1772 6.85905 10.2034 6.83125C10.6305 6.37281 11.3144 5.87453 12.2706 5.87453C13.6914 5.87453 14.8591 7.05906 14.8736 8.515C14.8877 9.78531 14.4381 10.9586 13.5011 12.1009Z"
        fill="black" />
</svg>
    